<?xml version="1.0" encoding="UTF-8"?>
<svg xmlns="http://www.w3.org/2000/svg" width="180.018" height="80.32" viewBox="0 0 180.018 80.32">
  <g id="aero" transform="translate(0 0)">
    <path id="Path_24" data-name="Path 24" d="M26.314,24.434,36.556,50.093H16.072ZM.764,73.271H7.017l7.224-18.76H38.5l7.331,18.76H59.736L29.657,1.361Z" fill="#164193"></path>
    <path id="Path_25" data-name="Path 25" d="M36.555,50.092,26.314,24.434,16.072,50.092Zm-6.9-48.731,30.079,71.91H45.828L38.5,54.511H14.24L7.016,73.271H.764Z" fill="none" stroke="#e3e3e2" stroke-width="1.033"></path>
    <path id="Path_26" data-name="Path 26" d="M80.8,1.573H101.4V5.31H86.656c-3.233,0-4.344.607-4.344,3.434V19.653H97.97V23.9H82.312V37.634c0,3.131,1.413,3.434,5.05,3.434h14.546v3.737H79.281c-5.757,0-6.564-2.525-6.564-7.778V9.35c0-6.363,1.312-7.777,8.081-7.777" transform="translate(-17.457 -0.051)" fill="#164193"></path>
    <path id="Path_27" data-name="Path 27" d="M80.8,1.573H101.4V5.31H86.656c-3.233,0-4.344.607-4.344,3.434V19.653H97.97V23.9H82.312V37.634c0,3.131,1.413,3.434,5.05,3.434h14.546v3.737H79.281c-5.757,0-6.564-2.525-6.564-7.778V9.35c0-6.363,1.312-7.777,8.081-7.777" transform="translate(-17.457 -0.051)" fill="none" stroke="#e3e3e2" stroke-width="1.033"></path>
    <path id="Path_28" data-name="Path 28" d="M124.731,44.805V1.573H142.1c10.909,0,16.465,4.242,16.465,11.919,0,5.556-3.435,9.495-9.5,10.2l11.212,21.111H148.771l-10.3-21.616c6.869-.1,10.1-2.627,10.1-8.687,0-6.465-3.132-9.393-9.8-9.393h-4.444v39.7Z" transform="translate(-30.076 -0.051)" fill="#164193"></path>
    <path id="Path_29" data-name="Path 29" d="M124.731,44.805V1.573H142.1c10.909,0,16.465,4.242,16.465,11.919,0,5.556-3.435,9.495-9.5,10.2l11.212,21.111H148.771l-10.3-21.616c6.869-.1,10.1-2.627,10.1-8.687,0-6.465-3.132-9.393-9.8-9.393h-4.444v39.7Z" transform="translate(-30.076 -0.051)" fill="none" stroke="#e3e3e2" stroke-width="1.033"></path>
    <path id="Path_30" data-name="Path 30" d="M212.775,25.364c0-12.223-4.85-19.8-11.617-19.8-6.666,0-11.617,7.575-11.617,19.8,0,12.121,4.951,19.7,11.617,19.7s11.617-7.475,11.617-19.7m-33.233-.607c0-13.131,8.081-22.425,20.3-22.425,13.031,0,23.03,9.9,23.03,23.537,0,13.029-8.081,22.425-20.4,22.425-12.929,0-22.928-9.9-22.928-23.537" transform="translate(-43.374 -0.236)" fill="#164193"></path>
    <path id="Path_31" data-name="Path 31" d="M212.775,25.364c0-12.223-4.85-19.8-11.617-19.8-6.666,0-11.617,7.575-11.617,19.8,0,12.121,4.951,19.7,11.617,19.7s11.617-7.475,11.617-19.7m-33.233-.607c0-13.131,8.081-22.425,20.3-22.425,13.031,0,23.03,9.9,23.03,23.537,0,13.029-8.081,22.425-20.4,22.425-12.929,0-22.928-9.9-22.928-23.537" transform="translate(-43.374 -0.236)" fill="none" stroke="#e3e3e2" stroke-width="1.033"></path>
    <path id="Path_32" data-name="Path 32" d="M98.014,89.165H93.48V64.695h4.534v11.13h10.23V64.695h4.5v24.47h-4.5V77.624H98.014Z" transform="translate(-22.494 -15.366)" fill="#e20613"></path>
    <path id="Path_33" data-name="Path 33" d="M124.649,83.5c0-4.872,3-8.318,7.531-8.318a8.422,8.422,0,0,1,8.543,8.73c0,4.834-3,8.318-7.569,8.318a8.414,8.414,0,0,1-8.505-8.731m12.328.225c0-4.534-1.8-7.344-4.309-7.344-2.474,0-4.31,2.811-4.31,7.344,0,4.5,1.837,7.307,4.31,7.307s4.309-2.773,4.309-7.307" transform="translate(-30.056 -17.911)" fill="#e20613"></path>
    <path id="Path_34" data-name="Path 34" d="M150.722,62.42h3.56V72.575q1.461-.114,2.024-.112c5.733,0,8.918,3.373,8.918,8.318,0,4.684-3.373,7.832-8.244,7.832h-6.258Zm5.321,24.957c3.823,0,5.546-1.611,5.546-5.92,0-5.059-1.948-7.57-5.883-7.57-.338,0-.825.038-1.424.075V87.227a9.082,9.082,0,0,0,1.761.149" transform="translate(-36.382 -14.814)" fill="#e20613"></path>
    <path id="Path_35" data-name="Path 35" d="M174.717,62.42h3.56V72.575q1.461-.114,2.024-.112c5.733,0,8.918,3.373,8.918,8.318,0,4.684-3.373,7.832-8.244,7.832h-6.258Zm5.321,24.957c3.823,0,5.546-1.611,5.546-5.92,0-5.059-1.948-7.57-5.883-7.57-.338,0-.825.038-1.424.075V87.227a9.081,9.081,0,0,0,1.761.149" transform="translate(-42.204 -14.814)" fill="#e20613"></path>
    <path id="Path_36" data-name="Path 36" d="M195.693,75.828h3.747L203.9,87.07l4.684-11.242h1.648l-9.255,22.558h-1.762l2.811-6.595Z" transform="translate(-47.293 -18.067)" fill="#e20613"></path>
  </g>
</svg>
