<?xml version="1.0" encoding="UTF-8"?>
<svg xmlns="http://www.w3.org/2000/svg" width="149.999" height="60.745" viewBox="0 0 149.999 60.745">
  <g id="atm" transform="translate(0 -0.001)">
    <rect id="Rectangle_25" data-name="Rectangle 25" width="149.999" height="60.67" transform="translate(0 0.076)" fill="#a41008"></rect>
    <rect id="Rectangle_26" data-name="Rectangle 26" width="149.521" height="60.202" transform="translate(0 0.066)" fill="#e20613"></rect>
    <path id="Path_16" data-name="Path 16" d="M90.809,8.193h-7.5V20.638h7.5v.014H93.2V8.209H90.809Zm-40.255.016L40.152,8.2l0,.005h-9.8V20.555H42.2l-.018.031,3.118,0a2.625,2.625,0,0,1,2.625,2.626v15A2.625,2.625,0,0,1,45.3,40.838H42.87V53.217H62.93V20.585A12.376,12.376,0,0,0,50.554,8.209M42.87,35.576h2.395V25.837h-9.9a7.5,7.5,0,0,0-7.5,7.5V45.717a7.5,7.5,0,0,0,7.5,7.5h4.849v-15a2.634,2.634,0,0,1,2.51-2.633h.148v-.005M139.182,8.209l-5.24-.006V20.583a2.627,2.627,0,0,1,2.626,2.626V53.217H143.4l8.168,0V20.6A12.389,12.389,0,0,0,139.182,8.209M113.688,20.587a2.626,2.626,0,0,1,2.626,2.625V53.217h15V8.209H113.688V20.587M96.06,53.217h15V8.209h-15Zm-5.251,0h-7.5l-5.24,0A12.389,12.389,0,0,1,65.679,40.824V.108h15v38.1a2.626,2.626,0,0,0,2.625,2.626h7.5Z" transform="translate(-9.662 -0.037)" fill="#a41008"></path>
    <path id="Path_17" data-name="Path 17" d="M49.764,7.655l-10.4,0,0,0h-9.8V20H41.411l-.018.031,3.118,0a2.625,2.625,0,0,1,2.625,2.625v15a2.625,2.625,0,0,1-2.625,2.625H42.08V52.664H62.14V20.032A12.378,12.378,0,0,0,49.764,7.655M42.08,35.023h2.395V25.285h-9.9a7.5,7.5,0,0,0-7.5,7.5V45.163a7.5,7.5,0,0,0,7.5,7.5h4.849v-15a2.635,2.635,0,0,1,2.511-2.632h.147v-.005M138.393,7.655l-5.241,0v12.38a2.627,2.627,0,0,1,2.627,2.625V52.664h6.835l8.167,0V20.044A12.389,12.389,0,0,0,138.393,7.655M112.9,20.033a2.626,2.626,0,0,1,2.625,2.625V52.664h15V7.655H112.9V20.033M95.269,52.664h15V7.655h-15Zm-5.249,0h-7.5l-5.24,0A12.389,12.389,0,0,1,64.889,40.271V0h15V37.659a2.626,2.626,0,0,0,2.625,2.626h7.5Z" transform="translate(-9.388 0)" fill="#fff"></path>
    <rect id="Rectangle_27" data-name="Rectangle 27" width="9.895" height="12.378" transform="translate(73.13 7.655)" fill="#fff"></rect>
  </g>
</svg>
