<?xml version="1.0" encoding="UTF-8"?>
<svg xmlns="http://www.w3.org/2000/svg" xmlns:xlink="http://www.w3.org/1999/xlink" width="181.772" height="47.647" viewBox="0 0 181.772 47.647">
  <defs>
    <clipPath id="clip-path">
      <rect id="Rectangle_139" data-name="Rectangle 139" width="181.772" height="47.647" fill="#4ebf17"></rect>
    </clipPath>
  </defs>
  <g id="food" transform="translate(0 0)">
    <g id="Group_123" data-name="Group 123" transform="translate(0 0)" clip-path="url(#clip-path)">
      <path id="Path_172" data-name="Path 172" d="M37.332,13.8V12.7a12.537,12.537,0,0,0-1.444-5.156c-1.168-2.475-3.162-3.713-7.012-4.332-1.513-.276-1.513-.276-7.631-.276H13.338v20.7h2.887c6.6,0,9.35-.824,10.588-3.162a13.963,13.963,0,0,0,.894-5.02v-.411h1.169V32.986H27.707V32.5a11.651,11.651,0,0,0-1.031-5.157C25.439,25.423,22.689,24.8,16.156,24.8H13.338V46.462h7.15v1.167H0V46.462H6.668V2.94H0V1.772H37.4L38.569,13.8Z" transform="translate(0 -0.809)" fill="#4ebf17"></path>
      <path id="Path_173" data-name="Path 173" d="M72.312,80.327A2.423,2.423,0,1,1,69.941,77.9a2.419,2.419,0,0,1,2.371,2.423" transform="translate(-30.803 -35.568)" fill="#4ebf17"></path>
      <path id="Path_174" data-name="Path 174" d="M81.765,23.788c0,15.195,4.607,22.827,13.752,22.827,9.281,0,13.819-7.563,13.819-22.9,0-14.506-4.882-22.688-13.545-22.688-9.212,0-14.026,7.838-14.026,22.757M112.017,8.869A25.233,25.233,0,0,1,116.966,24a23.912,23.912,0,0,1-6.737,16.913c-4.056,4.194-9.556,6.738-14.576,6.738-6.255,0-13.061-3.851-17.118-9.626a25.379,25.379,0,0,1-4.4-14.643A23.189,23.189,0,0,1,81.216,6.67C85.548,2.407,90.773,0,95.585,0c5.775,0,12.307,3.575,16.432,8.869" transform="translate(-33.848 0)" fill="#4ebf17"></path>
      <path id="Path_175" data-name="Path 175" d="M158.513,80.327a2.424,2.424,0,1,1-2.372-2.423,2.42,2.42,0,0,1,2.372,2.423" transform="translate(-70.159 -35.568)" fill="#4ebf17"></path>
      <path id="Path_176" data-name="Path 176" d="M170.931,23.788c0,15.195,4.607,22.827,13.75,22.827,9.281,0,13.819-7.563,13.819-22.9,0-14.506-4.881-22.688-13.544-22.688-9.212,0-14.025,7.838-14.025,22.757M201.182,8.869A25.227,25.227,0,0,1,206.132,24a23.913,23.913,0,0,1-6.738,16.913c-4.056,4.194-9.555,6.738-14.575,6.738-6.257,0-13.062-3.851-17.119-9.626a25.387,25.387,0,0,1-4.4-14.643A23.194,23.194,0,0,1,170.381,6.67C174.713,2.407,179.938,0,184.75,0c5.775,0,12.307,3.575,16.432,8.869" transform="translate(-74.557 0)" fill="#4ebf17"></path>
      <path id="Path_177" data-name="Path 177" d="M241.146,80.327a2.423,2.423,0,1,1-2.371-2.423,2.419,2.419,0,0,1,2.371,2.423" transform="translate(-107.887 -35.568)" fill="#4ebf17"></path>
      <path id="Path_178" data-name="Path 178" d="M262.012,46.462a75.772,75.772,0,0,0,8.044-.207c5.775-.481,10.588-2.888,12.993-6.463,2.406-3.437,3.644-8.732,3.644-15.468,0-9.007-2.82-15.126-8.526-18.564a21.571,21.571,0,0,0-9.9-2.75c-1.031-.068-1.031-.068-5.775-.068h-.48Zm3.437-44.69c7.838,0,8.937.069,12.169.894,10.175,2.68,16.569,11.275,16.569,22.138,0,8.663-4.125,16.088-11.069,19.939-4.126,2.269-7.838,2.888-16.569,2.888H248.536V46.462h6.67V2.941h-6.67V1.772Z" transform="translate(-113.473 -0.809)" fill="#4ebf17"></path>
      <path id="Path_179" data-name="Path 179" d="M330.416,80.327a2.423,2.423,0,1,1-2.371-2.423,2.419,2.419,0,0,1,2.371,2.423" transform="translate(-148.645 -35.568)" fill="#4ebf17"></path>
    </g>
  </g>
</svg>
