<?xml version="1.0" encoding="UTF-8"?>
<svg xmlns="http://www.w3.org/2000/svg" width="197.01" height="61.116" viewBox="0 0 197.01 61.116">
  <g id="LK" transform="translate(0.186 0.186)">
    <path id="Path_18" data-name="Path 18" d="M53.3.743.742,60.374l146.809-.052L142.2,43.36,196.266.743Z" transform="translate(-0.185 -0.186)" fill="#fff"></path>
    <path id="Path_19" data-name="Path 19" d="M53.3.743.743,60.373l146.808-.052L142.2,43.359,196.268.743Z" transform="translate(-0.186 -0.186)" fill="none" stroke="#fff" stroke-linecap="round" stroke-linejoin="round" stroke-width="1.486"></path>
    <path id="Path_20" data-name="Path 20" d="M63.215,44.134,52.578,58.117l-41.965.06L57.874,5.133H89.951l-32.077,39Z" transform="translate(-2.651 -1.282)" fill="#164193" fill-rule="evenodd"></path>
    <path id="Path_21" data-name="Path 21" d="M118.566,5.133h33l-29.759,33.6,44.613-33.6H205.36L155.722,42.94l5.4,15.177H121.806l-4.643-13.391L105.55,58.117l-32.737.06Z" transform="translate(-18.191 -1.282)" fill="#c41a21" fill-rule="evenodd"></path>
    <path id="Path_22" data-name="Path 22" d="M72.269,48.021l-.371.434h.878Zm-5.829,6.81-7.694,8.99,5.878,5.03,12-14.02Z" transform="translate(-14.676 -11.997)" fill="#164193" fill-rule="evenodd"></path>
    <path id="Path_23" data-name="Path 23" d="M88.826,5.141,61.7,36.572l8.809,7.577L104.174,5.141Z" transform="translate(-15.414 -1.284)" fill="#164193" fill-rule="evenodd"></path>
  </g>
</svg>
