<?xml version="1.0" encoding="UTF-8"?>
<svg xmlns="http://www.w3.org/2000/svg" width="180.529" height="45.682" viewBox="0 0 180.529 45.682">
  <g id="modelar" transform="translate(0 0)">
    <path id="Path_37" data-name="Path 37" d="M43.938,0,27.026,26.4,10.2,0H0V45.682H9.71V17.864L27.026,44.97,44.342,17.864V45.682h9.711V0Z" transform="translate(0 0)" fill="#e20613"></path>
    <path id="Path_38" data-name="Path 38" d="M101.846,35.548H91.1V26.053h10.741Zm4.541-.115V25.858a4.052,4.052,0,0,0-.189-1.12,3.054,3.054,0,0,0-3.078-2.285H89.831a3.237,3.237,0,0,0-1.727.469,3.431,3.431,0,0,0-1.539,2.937v9.575l.111.89A3.071,3.071,0,0,0,89.8,38.838h13.355a3.3,3.3,0,0,0,1.661-.423,3.469,3.469,0,0,0,1.573-2.982m16.931.023H112.688v-9.4h10.631Zm4.507-.068V25.858a3.167,3.167,0,0,0-.189-1.075,2.959,2.959,0,0,0-2.934-2.3H108.258l-.077.08V38.644l.077.079h16.478a3.4,3.4,0,0,0,1.751-.537,3.589,3.589,0,0,0,1.339-2.8m21.328,3.336.078-.079V35.262l-.078-.08H134.171V26.155h14.983l.078-.08V22.693l-.078-.08H129.819l-.077.08V38.644l.077.079Zm-13.576-6.09h12.4l.066-.08V29.16l-.066-.068h-12.4l-.078.068v3.394Zm18.582,6.2h9.973V35.593h-8.678V22.75l-.078-.08h-4.329l-.079.08V35.479l.112.88a3.028,3.028,0,0,0,3.078,2.479" transform="translate(-30.83 -7.997)" fill="#1d1d1b"></path>
    <path id="Path_39" data-name="Path 39" d="M232.82,38.834l.044-.035-5.3-9.963q-3.279-6.308-3.411-6.4h-6.357l-.033.035-8.715,16.281.077.08h5.449l6.345-12.169q.188.251,3.079,5.816v.034h-1.683l-.055,0h-1.1l-.054,0h-2.215l-1.883,3.45v.058h8.8v0h.078v.016l0,0,1.476,2.778c.005,0,.015.016.018.016Zm22.158.057-6.146-6.433h2.414a3.127,3.127,0,0,0,1.695-.5,3.491,3.491,0,0,0,1.439-2.879V25.843a2.755,2.755,0,0,0-.155-.937,3.007,3.007,0,0,0-3.012-2.457H234.525l-.078.08V38.845l.078.08h4.452l.033-.034.045-12.785v-.035h10.752v3.074H239.43v.046l9.479,9.734h6.068Z" transform="translate(-74.45 -7.991)" fill="#1d1d1b"></path>
    <path id="Path_40" data-name="Path 40" d="M258.781,17.683l3.944-4.276h5.289l-3.944,4.276Z" transform="translate(-92.164 -4.775)" fill="#1d1d1b"></path>
    <path id="Path_41" data-name="Path 41" d="M261.806,17.684l-3.944-4.276h-5.288l3.944,4.276Z" transform="translate(-89.953 -4.775)" fill="#1d1d1b"></path>
    <path id="Path_42" data-name="Path 42" d="M223.586,17.688l3.944-4.276h5.289l-3.945,4.276Z" transform="translate(-79.629 -4.777)" fill="#1d1d1b"></path>
  </g>
</svg>
