<?xml version="1.0" encoding="UTF-8"?>
<svg xmlns="http://www.w3.org/2000/svg" xmlns:xlink="http://www.w3.org/1999/xlink" width="248.378" height="34.135" viewBox="0 0 248.378 34.135">
  <defs>
    <clipPath id="clip-path">
      <rect id="Rectangle_142" data-name="Rectangle 142" width="248.378" height="34.135" fill="#f3c300"></rect>
    </clipPath>
  </defs>
  <g id="moja_psychologia" data-name="moja psychologia" transform="translate(0 0)">
    <g id="Group_138" data-name="Group 138" transform="translate(0 0)" clip-path="url(#clip-path)">
      <path id="Path_191" data-name="Path 191" d="M17.76,20.837h7.114c2.176,0,4.86-1.089,4.86-4.588,0-3.655-2.217-4.588-4.783-4.588H17.76ZM12.9,7.7H25.147c7.931,0,9.447,5.131,9.447,8.592,0,3.421-1.516,8.553-9.447,8.513H17.76V35.456H12.9Z" transform="translate(-3.321 -1.981)" fill="#f3c300"></path>
      <path id="Path_192" data-name="Path 192" d="M45.2,25.973c0,4.276,3.149,5.949,7.037,5.949,4.276,0,5.871-2.1,5.871-4.2A3.3,3.3,0,0,0,55.809,24.3c-1.943-.739-4.471-1.244-8.281-2.294-4.743-1.282-6.142-4.159-6.142-7.037,0-5.56,5.131-8.164,10.147-8.164,5.793,0,10.654,3.072,10.654,8.864H57.325c-.232-3.577-2.644-4.9-5.987-4.9-2.254,0-5.092.816-5.092,3.616,0,1.943,1.321,3.032,3.3,3.576.428.117,6.57,1.711,8.009,2.139a7.347,7.347,0,0,1,5.4,7.076c0,6.22-5.52,8.708-11.041,8.708-6.337,0-11.469-3.032-11.586-9.913Z" transform="translate(-10.384 -1.752)" fill="#f3c300"></path>
      <path id="Path_193" data-name="Path 193" d="M87.2,7.7,79.973,20.138,72.625,7.7H66.987L77.406,24.569V35.455h4.86V24.569L92.647,7.7Z" transform="translate(-17.245 -1.981)" fill="#f3c300"></path>
      <path id="Path_194" data-name="Path 194" d="M117.414,16.292c-.817-3.188-2.876-5.52-6.92-5.52-5.949,0-8.436,5.248-8.436,10.574s2.488,10.576,8.436,10.576c4.315,0,6.688-3.227,7.076-7.27h4.743c-.389,6.647-5.093,11.235-11.819,11.235-8.32,0-13.3-6.608-13.3-14.54s4.976-14.54,13.3-14.54c6.259.039,11.2,3.5,11.78,9.486Z" transform="translate(-25.022 -1.752)" fill="#f3c300"></path>
      <path id="Path_195" data-name="Path 195" d="M149.093,7.7V18.738H136.457V7.7H131.6v27.76h4.859V22.937h12.635V35.456h4.86V7.7Z" transform="translate(-33.878 -1.981)" fill="#f3c300"></path>
      <path id="Path_196" data-name="Path 196" d="M167.193,21.346c0,5.326,2.488,10.575,8.435,10.575s8.437-5.248,8.437-10.575-2.488-10.574-8.437-10.574-8.435,5.248-8.435,10.574m21.732,0c0,7.931-4.976,14.541-13.3,14.541s-13.3-6.61-13.3-14.541S167.308,6.8,175.628,6.8s13.3,6.61,13.3,14.541" transform="translate(-41.79 -1.752)" fill="#f3c300"></path>
      <path id="Path_197" data-name="Path 197" d="M198.878,7.7v27.76H217.85v-4.2H203.738V7.7Z" transform="translate(-51.199 -1.981)" fill="#f3c300"></path>
      <path id="Path_198" data-name="Path 198" d="M235.858,0h5.482l-5.521,4.159h-3.46Zm-9.292,19.594c0,5.326,2.489,10.575,8.437,10.575s8.437-5.248,8.437-10.575S240.952,9.02,235,9.02s-8.437,5.248-8.437,10.574m21.733,0c0,7.931-4.976,14.541-13.3,14.541s-13.3-6.61-13.3-14.541S226.683,5.053,235,5.053s13.3,6.61,13.3,14.541" transform="translate(-57.076 0)" fill="#f3c300"></path>
      <path id="Path_199" data-name="Path 199" d="M282.03,35.226h-3.111l-.739-3.267c-2.6,2.955-4.977,3.927-8.358,3.927-8.32,0-13.3-6.61-13.3-14.541S261.5,6.8,269.822,6.8c6.064,0,11.158,3.228,11.9,9.486h-4.743c-.466-3.654-3.653-5.52-7.153-5.52-5.949,0-8.436,5.249-8.436,10.575s2.488,10.576,8.436,10.576c4.976.077,7.7-2.916,7.775-7.62H270.21V20.607H282.03Z" transform="translate(-66.039 -1.752)" fill="#f3c300"></path>
      <rect id="Rectangle_141" data-name="Rectangle 141" width="4.861" height="27.76" transform="translate(217.974 5.715)" fill="#f3c300"></rect>
      <path id="Path_200" data-name="Path 200" d="M311.92,12.477h.117L316.2,24.414h-8.476ZM309.432,7.7,298.78,35.455H303.8l2.6-7.348h11.081l2.6,7.348h5.21L314.6,7.7Z" transform="translate(-76.917 -1.981)" fill="#f3c300"></path>
      <path id="Path_201" data-name="Path 201" d="M.247,34.32V36.2L6.29,38.276V38.3L.247,40.427v1.9H7.965V41.043H2.009v-.022L7.965,38.88V37.767L2.009,35.628V35.6H7.965V34.32Z" transform="translate(-0.064 -8.835)" fill="#f3c300"></path>
      <path id="Path_202" data-name="Path 202" d="M4.043,29.747c1.481,0,2.94-.691,2.94-2.345s-1.458-2.346-2.94-2.346S1.1,25.749,1.1,27.4s1.458,2.345,2.94,2.345m0-6.042a3.712,3.712,0,1,1,0,7.394,3.712,3.712,0,1,1,0-7.394" transform="translate(0 -6.103)" fill="#f3c300"></path>
      <path id="Path_203" data-name="Path 203" d="M5.479,17.531c1.34,0,2.67.324,2.67,2.54a2.173,2.173,0,0,1-2.475,2.3H5.263V21.023h.4c.875,0,1.383-.238,1.383-1.06,0-.875-.529-1.081-1.491-1.081H.248V17.531Z" transform="translate(-0.064 -4.513)" fill="#f3c300"></path>
      <path id="Path_204" data-name="Path 204" d="M1.577,11.408v-.032L4.9,10.22v2.355Zm-1.33-.746V12.1l7.717,2.962V13.668l-2.043-.724V9.863l2.043-.725V7.69Z" transform="translate(-0.064 -1.98)" fill="#f3c300"></path>
    </g>
  </g>
</svg>
