<?xml version="1.0" encoding="UTF-8"?>
<svg xmlns="http://www.w3.org/2000/svg" xmlns:xlink="http://www.w3.org/1999/xlink" width="168.355" height="83.065" viewBox="0 0 168.355 83.065">
  <defs>
    <clipPath id="clip-path">
      <rect id="Rectangle_140" data-name="Rectangle 140" width="168.355" height="83.065" fill="#34a414"></rect>
    </clipPath>
  </defs>
  <g id="moje_zdravie" data-name="moje zdravie" transform="translate(0 0)">
    <g id="Group_125" data-name="Group 125" transform="translate(0 0)" clip-path="url(#clip-path)">
      <path id="Path_180" data-name="Path 180" d="M.434,11.982H6.643v4.139h.173a16.928,16.928,0,0,1,1.61-2.012,8.8,8.8,0,0,1,1.926-1.553A9.731,9.731,0,0,1,12.8,11.551a12.1,12.1,0,0,1,3.161-.374,10.764,10.764,0,0,1,5.032,1.208,6.833,6.833,0,0,1,3.306,3.737A13.249,13.249,0,0,1,28.146,12.5a10.392,10.392,0,0,1,5.462-1.321q4.714,0,7.331,2.3t2.615,7.7V41.706H37V24.343q0-1.782-.115-3.248a6.661,6.661,0,0,0-.661-2.53,3.769,3.769,0,0,0-1.639-1.638,6.478,6.478,0,0,0-2.99-.576q-3.335,0-4.829,2.071a9.892,9.892,0,0,0-1.5,5.864V41.706H18.717V22.618A8.093,8.093,0,0,0,17.6,17.933q-1.122-1.582-4.11-1.582a6.007,6.007,0,0,0-2.445.518,6.08,6.08,0,0,0-2.069,1.495,7.5,7.5,0,0,0-1.437,2.414,9.176,9.176,0,0,0-.546,3.278v17.65H.434Z" transform="translate(-0.095 -2.453)" fill="#34a414"></path>
      <path id="Path_181" data-name="Path 181" d="M73.334,37.337a7.513,7.513,0,0,0,3.8-.92A7.972,7.972,0,0,0,79.773,34,10.537,10.537,0,0,0,81.3,30.639a15.088,15.088,0,0,0,0-7.618,10.175,10.175,0,0,0-1.524-3.363,8.145,8.145,0,0,0-2.645-2.387,8.29,8.29,0,0,0-7.589,0,8.137,8.137,0,0,0-2.645,2.387,10.143,10.143,0,0,0-1.524,3.363,15.088,15.088,0,0,0,0,7.618A10.5,10.5,0,0,0,66.895,34a7.965,7.965,0,0,0,2.645,2.415,7.506,7.506,0,0,0,3.794.92m0,5.174a16.193,16.193,0,0,1-6.353-1.179,13.537,13.537,0,0,1-4.715-3.249,13.865,13.865,0,0,1-2.932-4.944,19.015,19.015,0,0,1-1.006-6.324,18.837,18.837,0,0,1,1.006-6.266A13.876,13.876,0,0,1,62.266,15.6a13.547,13.547,0,0,1,4.715-3.249,17.711,17.711,0,0,1,12.706,0A13.555,13.555,0,0,1,84.4,15.6a13.887,13.887,0,0,1,2.932,4.945,18.857,18.857,0,0,1,1.006,6.266,19.035,19.035,0,0,1-1.006,6.324A13.877,13.877,0,0,1,84.4,38.084a13.544,13.544,0,0,1-4.715,3.249,16.2,16.2,0,0,1-6.353,1.179" transform="translate(-12.799 -2.453)" fill="#34a414"></path>
      <path id="Path_182" data-name="Path 182" d="M98.2,0h6.554V6.209H98.2Zm0,9.529h6.554V39.987q0,4.426-1.955,6.841t-6.554,2.416q-.98,0-1.639-.059t-1.293-.173V43.838q.633.115,1.208.173c.382.038.727.058,1.035.058q1.781,0,2.213-1.092A9.417,9.417,0,0,0,98.2,39.7Z" transform="translate(-20.476 0)" fill="#34a414"></path>
      <path id="Path_183" data-name="Path 183" d="M132.692,24.229a10.643,10.643,0,0,0-.661-2.99,8.012,8.012,0,0,0-1.5-2.5,7.415,7.415,0,0,0-2.3-1.724,6.772,6.772,0,0,0-3.018-.662,7.871,7.871,0,0,0-3.134.6,7.145,7.145,0,0,0-2.414,1.667,8.249,8.249,0,0,0-1.61,2.5,8.7,8.7,0,0,0-.661,3.105ZM117.4,28.541a11.4,11.4,0,0,0,.489,3.335,8.179,8.179,0,0,0,1.466,2.817,7.059,7.059,0,0,0,2.472,1.926,8.145,8.145,0,0,0,3.565.719,7.876,7.876,0,0,0,4.629-1.236,7.314,7.314,0,0,0,2.616-3.709h6.209a12.33,12.33,0,0,1-4.829,7.5,13.156,13.156,0,0,1-4,1.955,16.115,16.115,0,0,1-4.629.662,15.738,15.738,0,0,1-6.209-1.151,12.808,12.808,0,0,1-4.57-3.22,13.637,13.637,0,0,1-2.818-4.944,20.092,20.092,0,0,1-.948-6.325,17.877,17.877,0,0,1,1.005-6.007,15.366,15.366,0,0,1,2.875-5,13.479,13.479,0,0,1,10.493-4.685,13.327,13.327,0,0,1,6.3,1.466,13.814,13.814,0,0,1,4.628,3.88,15.723,15.723,0,0,1,2.673,5.548,17.038,17.038,0,0,1,.431,6.469Z" transform="translate(-24.323 -2.453)" fill="#34a414"></path>
      <path id="Path_184" data-name="Path 184" d="M130.076,67.305H137.2l7.532,22.824h.116L152.1,67.305h6.785L148.245,97.029h-7.358Z" transform="translate(-28.543 -14.769)" fill="#34a414"></path>
      <path id="Path_185" data-name="Path 185" d="M167.862,64.626h6.554V94.35h-6.554Zm0-9.529h6.554v6.209h-6.554Z" transform="translate(-36.835 -12.09)" fill="#34a414"></path>
      <path id="Path_186" data-name="Path 186" d="M200.978,79.326a10.617,10.617,0,0,0-.662-2.99,7.979,7.979,0,0,0-1.494-2.5,7.419,7.419,0,0,0-2.3-1.724,6.775,6.775,0,0,0-3.018-.662,7.87,7.87,0,0,0-3.133.6,7.16,7.16,0,0,0-2.414,1.667,8.245,8.245,0,0,0-1.609,2.5,8.654,8.654,0,0,0-.662,3.105Zm-15.293,4.312a11.4,11.4,0,0,0,.488,3.335,8.207,8.207,0,0,0,1.467,2.817,7.038,7.038,0,0,0,2.472,1.926,8.144,8.144,0,0,0,3.564.719A7.868,7.868,0,0,0,198.3,91.2a7.306,7.306,0,0,0,2.616-3.709h6.209a12.334,12.334,0,0,1-4.829,7.5,13.174,13.174,0,0,1-4,1.955,16.1,16.1,0,0,1-4.628.662,15.748,15.748,0,0,1-6.21-1.151,12.822,12.822,0,0,1-4.57-3.22,13.646,13.646,0,0,1-2.816-4.944,20.069,20.069,0,0,1-.949-6.325,17.866,17.866,0,0,1,1.008-6.008,15.366,15.366,0,0,1,2.873-5A13.479,13.479,0,0,1,193.5,66.275a13.325,13.325,0,0,1,6.3,1.466,13.8,13.8,0,0,1,4.63,3.88,15.736,15.736,0,0,1,2.673,5.548,17.07,17.07,0,0,1,.432,6.469Z" transform="translate(-39.308 -14.543)" fill="#34a414"></path>
      <path id="Path_187" data-name="Path 187" d="M1.149,67.3v5.174H16.443L0,92.43v4.6H26.16V91.855H8.279L25.3,71.9V67.3Z" transform="translate(0 -14.769)" fill="#34a414"></path>
      <path id="Path_188" data-name="Path 188" d="M39.921,79.8a14.471,14.471,0,0,0,.488,3.737A10.264,10.264,0,0,0,41.9,86.819a7.572,7.572,0,0,0,2.558,2.3,7.465,7.465,0,0,0,3.682.863,7.356,7.356,0,0,0,3.765-.921A7.794,7.794,0,0,0,54.5,86.647a10.91,10.91,0,0,0,1.494-3.363,15.021,15.021,0,0,0,.49-3.823q0-4.943-2.214-7.7A7.29,7.29,0,0,0,48.258,69a7.419,7.419,0,0,0-3.881.948,7.969,7.969,0,0,0-2.587,2.472,10.281,10.281,0,0,0-1.439,3.449,18.045,18.045,0,0,0-.43,3.939M62.8,94.351H56.593V90.326H56.48a7.794,7.794,0,0,1-3.853,3.708,13.059,13.059,0,0,1-5.347,1.121,14.2,14.2,0,0,1-6.123-1.236,12.225,12.225,0,0,1-4.341-3.363,14.388,14.388,0,0,1-2.586-5.032,21.785,21.785,0,0,1-.863-6.238A19.9,19.9,0,0,1,34.46,72.33a13.865,13.865,0,0,1,2.9-4.829A11.225,11.225,0,0,1,41.5,64.713a13.2,13.2,0,0,1,4.743-.891,15.9,15.9,0,0,1,2.818.259,12.487,12.487,0,0,1,2.76.834,10.95,10.95,0,0,1,2.442,1.466,8.119,8.119,0,0,1,1.869,2.1h.116V55.1H62.8Z" transform="translate(-7.322 -12.09)" fill="#34a414"></path>
      <path id="Path_189" data-name="Path 189" d="M75.791,67.079h6.153v5.749h.115a6.61,6.61,0,0,1,1.121-2.357,10.9,10.9,0,0,1,2.012-2.1,10.157,10.157,0,0,1,2.616-1.524,7.845,7.845,0,0,1,2.932-.574,14.493,14.493,0,0,1,1.581.057q.431.059.891.116v6.324q-.691-.115-1.41-.2a11.73,11.73,0,0,0-1.408-.086,7.53,7.53,0,0,0-3.132.661A7.2,7.2,0,0,0,84.7,75.1a9.588,9.588,0,0,0-1.724,3.191,13.837,13.837,0,0,0-.631,4.37V96.8H75.791Z" transform="translate(-16.631 -14.543)" fill="#34a414"></path>
      <path id="Path_190" data-name="Path 190" d="M116.338,81.912a7.938,7.938,0,0,1-3.679,1.179q-2.185.2-4.37.6a14.092,14.092,0,0,0-2.012.489,6.045,6.045,0,0,0-1.725.863,3.8,3.8,0,0,0-1.179,1.437,4.911,4.911,0,0,0-.432,2.156,2.746,2.746,0,0,0,.633,1.84,4.581,4.581,0,0,0,1.523,1.179,7.059,7.059,0,0,0,1.955.6,12.16,12.16,0,0,0,1.926.173,10.672,10.672,0,0,0,2.359-.288,7.841,7.841,0,0,0,2.385-.977,6.293,6.293,0,0,0,1.869-1.753,4.44,4.44,0,0,0,.747-2.616Zm6.555,8.279a3.493,3.493,0,0,0,.315,1.725,1.337,1.337,0,0,0,1.237.518h.69a4.268,4.268,0,0,0,.92-.116V96.86q-.345.114-.891.258t-1.121.259c-.383.076-.767.134-1.15.173s-.711.057-.977.057a6.318,6.318,0,0,1-3.335-.8,4,4,0,0,1-1.725-2.817,11.6,11.6,0,0,1-4.8,2.759,18.867,18.867,0,0,1-5.49.863,13.5,13.5,0,0,1-3.852-.546,10.1,10.1,0,0,1-3.248-1.61,7.684,7.684,0,0,1-2.242-2.7,8.31,8.31,0,0,1-.834-3.822,8.827,8.827,0,0,1,1.006-4.484,7.445,7.445,0,0,1,2.646-2.7,11.916,11.916,0,0,1,3.679-1.408q2.04-.431,4.111-.661a33.769,33.769,0,0,1,3.391-.489,15.855,15.855,0,0,0,2.846-.489,4.343,4.343,0,0,0,1.955-1.064,2.924,2.924,0,0,0,.719-2.155,3.363,3.363,0,0,0-.6-2.07,4.074,4.074,0,0,0-1.495-1.236,6.457,6.457,0,0,0-1.984-.575,16,16,0,0,0-2.069-.144,8.238,8.238,0,0,0-4.542,1.15,4.482,4.482,0,0,0-2.013,3.564H97.48a9.868,9.868,0,0,1,1.381-4.772,9.547,9.547,0,0,1,3.075-3.047,12.593,12.593,0,0,1,4.224-1.61,25.228,25.228,0,0,1,4.831-.461,20.375,20.375,0,0,1,4.311.461,12.286,12.286,0,0,1,3.825,1.495,8.281,8.281,0,0,1,2.73,2.673,7.344,7.344,0,0,1,1.035,4Z" transform="translate(-21.151 -14.543)" fill="#34a414"></path>
    </g>
  </g>
</svg>
